<svg id="Text_input" data-name="Text input" xmlns="http://www.w3.org/2000/svg" width="11.439" height="11.439" viewBox="0 0 11.439 11.439">
  <path id="路径_85" data-name="路径 85" d="M436.26,201.6h-1.248a.239.239,0,0,0-.239.239v.682a.239.239,0,0,0,.239.239h.093a.048.048,0,0,1,.048.048v4.531a.048.048,0,0,1-.048.048h-.093a.239.239,0,0,0-.239.239v.682a.239.239,0,0,0,.239.239h1.248a.239.239,0,0,0,.239-.239v-.682a.239.239,0,0,0-.239-.239h-.072a.067.067,0,0,1-.067-.067v-4.488a.067.067,0,0,1,.067-.067h.072a.239.239,0,0,0,.239-.239v-.682A.239.239,0,0,0,436.26,201.6Z" transform="translate(-429.925 -199.345)" fill="#bebada"/>
  <g id="矩形_22" data-name="矩形 22" transform="translate(0)" fill="none" stroke="#bebada" stroke-width="0.8">
    <rect width="11.439" height="11.439" rx="2" stroke="none"/>
    <rect x="0.4" y="0.4" width="10.639" height="10.639" rx="1.6" fill="none"/>
  </g>
</svg>
