<svg xmlns="http://www.w3.org/2000/svg" width="7.377" height="10.187" viewBox="0 0 7.377 10.187">
  <path id="Stepper" d="M229.367,90.863l.01.009-3.4,3.185a.426.426,0,0,1-.575,0s0,0,0,0L222,90.872a.853.853,0,0,1,1.14-.009l.01.009,2.538,2.377,2.538-2.377A.853.853,0,0,1,229.367,90.863Zm-3.966-6.77a.427.427,0,0,1,.571,0l0,0,3.4,3.185h0a.853.853,0,0,1-1.14.008l-.01-.009L225.688,84.9l-2.539,2.378a.853.853,0,0,1-1.14.008l-.01-.009,3.4-3.185s0,0,0,0Z" transform="translate(-222 -83.981)" fill="#bebada"/>
</svg>
