<svg id="Draw" xmlns="http://www.w3.org/2000/svg" width="12.361" height="11.232" viewBox="0 0 12.361 11.232">
  <path id="路径_80" data-name="路径 80" d="M69.159,421.3a3.869,3.869,0,0,1-1.28-.213,1.912,1.912,0,0,1-1.387-1.778c-.036-1.245.925-1.672,1.672-1.992.711-.32,1.1-.5,1.1-1.031,0-.64-1.1-1.174-1.565-1.245a.462.462,0,0,1-.285-.427.352.352,0,0,1,.391-.285c.64.107,2.169.783,2.169,1.956,0,1.031-.854,1.387-1.529,1.672-.782.356-1.28.6-1.245,1.352a1.2,1.2,0,0,0,.889,1.138,2.962,2.962,0,0,0,2.667-.32.353.353,0,1,1,.533.462A3.006,3.006,0,0,1,69.159,421.3Z" transform="translate(-66.491 -410.07)" fill="#bebada"/>
  <path id="路径_81" data-name="路径 81" d="M433.593,117.059c-.071.071.036.249.178.356s.32.142.391.071l1.494-1.138-1.423-1.031Zm6.864-8.856a.874.874,0,0,0-1.245.213l-4.588,6.331,1.423,1.031,4.624-6.331A.906.906,0,0,0,440.457,108.2Z" transform="translate(-428.471 -108.032)" fill="#bebada"/>
</svg>
