<svg id="Select" xmlns="http://www.w3.org/2000/svg" width="11.472" height="11.453" viewBox="0 0 11.472 11.453">
  <path id="路径_82" data-name="路径 82" d="M463.277,375.5l-6.014-3.578c-.219-.13-.36-.031-.314.221l1.279,6.919c.047.252.2.287.351.077a20.891,20.891,0,0,1,1.487-1.886l1.285,1.915a.394.394,0,0,0,.55.106l.432-.3a.407.407,0,0,0,.1-.558l-1.285-1.913a17.659,17.659,0,0,1,2.073-.656C463.474,375.79,463.5,375.634,463.277,375.5Z" transform="translate(-451.956 -367.894)" fill="#bebada"/>
  <path id="路径_83" data-name="路径 83" d="M70.428,69.986H66.974a1.113,1.113,0,0,1-1.131-1.092V61.332a1.113,1.113,0,0,1,1.131-1.093H74.4a1.113,1.113,0,0,1,1.13,1.093v4.4h.837v-4.4A1.952,1.952,0,0,0,74.4,59.4H66.974a1.951,1.951,0,0,0-1.967,1.93v7.562a1.951,1.951,0,0,0,1.967,1.929h3.454v-.838Z" transform="translate(-65.007 -59.403)" fill="#bebada"/>
</svg>
