<svg xmlns="http://www.w3.org/2000/svg" width="11.439" height="10.754" viewBox="0 0 11.439 10.754">
  <path id="Slider" d="M75.764,155.084v.978H73.143v-.978Zm2.621-.978a.455.455,0,0,1,.336.145.471.471,0,0,1,.141.344v1.955a.478.478,0,0,1-.141.344.448.448,0,0,1-.336.145H76.479a.455.455,0,0,1-.336-.145A.471.471,0,0,1,76,156.55V154.6a.478.478,0,0,1,.141-.344.448.448,0,0,1,.336-.145h1.906Zm1.192-2.933v.978H73.143v-.978Zm-4.766-3.911v.978H73.143v-.978Zm9.771,7.821v.978H79.1v-.978Zm-7.149-8.8a.455.455,0,0,1,.336.145.471.471,0,0,1,.141.344v1.955a.478.478,0,0,1-.141.344.448.448,0,0,1-.336.145H75.526a.455.455,0,0,1-.336-.145.471.471,0,0,1-.141-.344v-1.955a.478.478,0,0,1,.141-.344.448.448,0,0,1,.336-.145ZM82.2,150.2a.455.455,0,0,1,.336.145.471.471,0,0,1,.141.344v1.955a.478.478,0,0,1-.141.344.448.448,0,0,1-.336.145H80.292a.455.455,0,0,1-.336-.145.471.471,0,0,1-.141-.344v-1.955a.478.478,0,0,1,.141-.344.448.448,0,0,1,.336-.145Zm2.383.978v.978H82.913v-.978Zm0-3.911v.978H78.147v-.978Z" transform="translate(-73.143 -146.285)" fill="#bebada"/>
</svg>
