<svg xmlns="http://www.w3.org/2000/svg" width="11.475" height="11.453" viewBox="0 0 11.475 11.453">
  <path id="Filter" d="M75.965,81.269a1.118,1.118,0,0,1-.536-.136l-1.48-.814a1.121,1.121,0,0,1-.582-.986v-4.7a.22.22,0,0,0-.09-.178l-3.418-2.722-.051-.045a1.112,1.112,0,0,1,.814-1.878h9.21a1.121,1.121,0,0,1,.826,1.878l-.045.045L77.165,74.5a.226.226,0,0,0-.078.178v5.47a1.118,1.118,0,0,1-1.121,1.118Zm-5.524-10.2,3.4,2.713a1.1,1.1,0,0,1,.425.856v4.7a.232.232,0,0,0,.111.2l1.48.8a.229.229,0,0,0,.229,0,.223.223,0,0,0,.109-.2V74.681a1.112,1.112,0,0,1,.413-.871l3.409-2.74a.229.229,0,0,0,.021-.235.226.226,0,0,0-.2-.115h-9.21a.223.223,0,0,0-.181.359Zm10.084,4.473H78.078a.452.452,0,0,1,0-.9h2.447a.452.452,0,0,1,0,.9Zm0,1.67H78.078a.452.452,0,0,1,0-.9h2.447a.452.452,0,0,1,0,.9Zm0,1.658H78.078a.452.452,0,0,1,0-.9h2.447a.452.452,0,0,1,0,.9Z" transform="translate(-69.503 -69.816)" fill="#bebada"/>
</svg>
